<svg xmlns="http://www.w3.org/2000/svg" width="180" height="180" viewBox="0 0 512 512">
  <defs>
    <linearGradient id="bg" x1="0%" y1="0%" x2="100%" y2="100%">
      <stop offset="0%" stop-color="#0ea5e9" />
      <stop offset="100%" stop-color="#14b8a6" />
    </linearGradient>
    <linearGradient id="stroke" x1="0%" y1="0%" x2="100%" y2="100%">
      <stop offset="0%" stop-color="#f8fafc" stop-opacity="0.95" />
      <stop offset="100%" stop-color="#bae6fd" stop-opacity="0.75" />
    </linearGradient>
  </defs>
  <rect x="48" y="48" width="416" height="416" rx="112" fill="url(#bg)" />
  <path
    d="M160 352V176c0-13.255 10.745-24 24-24h42c8.04 0 15.417 4.621 18.87 11.98L256 204l11.13-40.02C270.583 156.621 277.96 152 286 152h42c13.255 0 24 10.745 24 24v176c0 13.255-10.745 24-24 24h-20c-13.255 0-24-10.745-24-24v-72l-24 60c-7.735 19.346-35.989 19.346-43.724 0l-24-60v72c0 13.255-10.745 24-24 24h-20c-13.255 0-24-10.745-24-24z"
    fill="none"
    stroke="url(#stroke)"
    stroke-width="28"
    stroke-linecap="round"
    stroke-linejoin="round"
  />
</svg>
