<svg xmlns="http://www.w3.org/2000/svg" width="32" height="32" viewBox="0 0 64 64">
  <defs>
    <linearGradient id="bg" x1="0%" y1="0%" x2="100%" y2="100%">
      <stop offset="0%" stop-color="#0ea5e9" />
      <stop offset="100%" stop-color="#6366f1" />
    </linearGradient>
  </defs>
  <rect x="4" y="4" width="56" height="56" rx="16" fill="url(#bg)" />
  <path
    d="M20 44V20c0-2.21 1.79-4 4-4h4.5c1.32 0 2.54.76 3.1 1.95L32 24l.4-6.05C32.96 16.76 34.18 16 35.5 16H40c2.21 0 4 1.79 4 4v24c0 2.21-1.79 4-4 4h-2.5c-2.21 0-4-1.79-4-4v-8l-3.2 7.99c-1.29 3.21-5.81 3.21-7.1 0L24 32v8c0 2.21-1.79 4-4 4h-2c-2.21 0-4-1.79-4-4z"
    fill="#f8fafc"
  />
</svg>
