<svg xmlns="http://www.w3.org/2000/svg" width="512" height="512" viewBox="0 0 512 512">
  <defs>
    <linearGradient id="bg" x1="0%" y1="0%" x2="100%" y2="100%">
      <stop offset="0%" stop-color="#0ea5e9" />
      <stop offset="100%" stop-color="#6366f1" />
    </linearGradient>
    <linearGradient id="stroke" x1="0%" y1="0%" x2="100%" y2="100%">
      <stop offset="0%" stop-color="#f8fafc" stop-opacity="0.9" />
      <stop offset="100%" stop-color="#e0f2fe" stop-opacity="0.75" />
    </linearGradient>
  </defs>
  <rect x="32" y="32" width="448" height="448" rx="120" fill="url(#bg)" />
  <path
    d="M160 368V156c0-13.255 10.745-24 24-24h47.5c9.263 0 17.68 5.324 21.638 13.73L256 182.5l2.862-36.77C262.82 137.324 271.237 132 280.5 132H328c13.255 0 24 10.745 24 24v212c0 13.255-10.745 24-24 24h-24c-13.255 0-24-10.745-24-24V264l-19.138 47.846c-7.735 19.346-35.989 19.346-43.724 0L198 264v104c0 13.255-10.745 24-24 24h-14c-13.255 0-24-10.745-24-24z"
    fill="none"
    stroke="url(#stroke)"
    stroke-width="28"
    stroke-linecap="round"
    stroke-linejoin="round"
  />
</svg>
