<svg xmlns="http://www.w3.org/2000/svg" viewBox="0 0 36 24">
  <rect width="36" height="24" fill="#b22234" />
  <g fill="#ffffff">
    <rect y="2" width="36" height="2" />
    <rect y="6" width="36" height="2" />
    <rect y="10" width="36" height="2" />
    <rect y="14" width="36" height="2" />
    <rect y="18" width="36" height="2" />
    <rect y="22" width="36" height="2" />
  </g>
  <rect width="16" height="12" fill="#3c3b6e" />
  <g fill="#ffffff">
    <circle cx="2" cy="2" r="0.7" />
    <circle cx="5" cy="2" r="0.7" />
    <circle cx="8" cy="2" r="0.7" />
    <circle cx="11" cy="2" r="0.7" />
    <circle cx="14" cy="2" r="0.7" />
    <circle cx="3.5" cy="4" r="0.7" />
    <circle cx="6.5" cy="4" r="0.7" />
    <circle cx="9.5" cy="4" r="0.7" />
    <circle cx="12.5" cy="4" r="0.7" />
    <circle cx="2" cy="6" r="0.7" />
    <circle cx="5" cy="6" r="0.7" />
    <circle cx="8" cy="6" r="0.7" />
    <circle cx="11" cy="6" r="0.7" />
    <circle cx="14" cy="6" r="0.7" />
    <circle cx="3.5" cy="8" r="0.7" />
    <circle cx="6.5" cy="8" r="0.7" />
    <circle cx="9.5" cy="8" r="0.7" />
    <circle cx="12.5" cy="8" r="0.7" />
    <circle cx="2" cy="10" r="0.7" />
    <circle cx="5" cy="10" r="0.7" />
    <circle cx="8" cy="10" r="0.7" />
    <circle cx="11" cy="10" r="0.7" />
    <circle cx="14" cy="10" r="0.7" />
  </g>
</svg>
